<mxfile host="app.diagrams.net" modified="2024-06-01T13:30:26.633Z" agent="Mozilla/5.0 (Windows NT 10.0; Win64; x64) AppleWebKit/537.36 (KHTML, like Gecko) Chrome/125.0.0.0 Safari/537.36" version="24.4.13" etag="cG2HcoFngJZgP73Kvq7z" type="github">
  <diagram id="ih0N_DYmj1FEEKcN_3yk" name="Page-1">
    <mxGraphModel dx="1434" dy="820" grid="1" gridSize="10" guides="1" tooltips="1" connect="1" arrows="1" fold="1" page="1" pageScale="1" pageWidth="850" pageHeight="1100" math="0" shadow="0">
      <root>
        <mxCell id="0" />
        <mxCell id="1" parent="0" />
        <UserObject label="&lt;pre&gt;     ┌───────┐              ┌───────────────┐          ┌───────┐                ┌────────┐&#xa;     │Manager│              │Web Application│          │Backend│                │Database│&#xa;     └───┬───┘              └───────┬───────┘          └───┬───┘                └───┬────┘&#xa;         │Open Task Assignment Page │                      │                        │     &#xa;         │─────────────────────────&gt;│                      │                        │     &#xa;         │                          │                      │                        │     &#xa;         │  Select Task and User    │                      │                        │     &#xa;         │─────────────────────────&gt;│                      │                        │     &#xa;         │                          │                      │                        │     &#xa;         │    Submit Assignment     │                      │                        │     &#xa;         │─────────────────────────&gt;│                      │                        │     &#xa;         │                          │                      │                        │     &#xa;         │                          │ Assign Task to User  │                        │     &#xa;         │                          │─────────────────────&gt;│                        │     &#xa;         │                          │                      │                        │     &#xa;         │                          │                      │Update Task with User ID│     &#xa;         │                          │                      │────────────────────────&gt;     &#xa;         │                          │                      │                        │     &#xa;         │                          │                      │     Confirm Update     │     &#xa;         │                          │                      │&lt;────────────────────────     &#xa;         │                          │                      │                        │     &#xa;         │                          │ Confirm Assignment   │                        │     &#xa;         │                          │&lt;─────────────────────│                        │     &#xa;         │                          │                      │                        │     &#xa;         │ Show Assignment Success  │                      │                        │     &#xa;         │&lt;─────────────────────────│                      │                        │     &#xa;     ┌───┴───┐              ┌───────┴───────┐          ┌───┴───┐                ┌───┴────┐&#xa;     │Manager│              │Web Application│          │Backend│                │Database│&#xa;     └───────┘              └───────────────┘          └───────┘                └────────┘&#xa;&lt;/pre&gt;" plantUmlData="{&#xa;  &quot;data&quot;: &quot;@startuml\nskinparam shadowing true\nManager -&gt; \&quot;Web Application\&quot;: Open Task Assignment Page\nManager -&gt; \&quot;Web Application\&quot;: Select Task and User\nManager -&gt; \&quot;Web Application\&quot;: Submit Assignment\n\&quot;Web Application\&quot; -&gt; Backend: Assign Task to User\nBackend -&gt; Database: Update Task with User ID\nDatabase -&gt; Backend: Confirm Update\nBackend -&gt; \&quot;Web Application\&quot;: Confirm Assignment\n\&quot;Web Application\&quot; -&gt; Manager: Show Assignment Success\n@enduml&quot;,&#xa;  &quot;format&quot;: &quot;txt&quot;&#xa;}" id="Da1yGj-dtLX-qZ3yBa57-2">
          <mxCell style="text;html=1;align=left;verticalAlign=top;" vertex="1" parent="1">
            <mxGeometry x="60" y="50" width="620" height="450" as="geometry" />
          </mxCell>
        </UserObject>
      </root>
    </mxGraphModel>
  </diagram>
</mxfile>
